<?xml version="1.0" encoding="UTF-8" standalone="no"?>
<svg width="34px" height="40px" viewBox="0 0 34 40" version="1.1" xmlns="http://www.w3.org/2000/svg" xmlns:xlink="http://www.w3.org/1999/xlink">
    <!-- Generator: Sketch 39.1 (31720) - http://www.bohemiancoding.com/sketch -->
    <title>page</title>
    <desc>Created with Sketch.</desc>
    <defs></defs>
    <g id="UI" stroke="none" stroke-width="1" fill="none" fill-rule="evenodd">
        <g id="公司主页" transform="translate(-26.000000, -1528.000000)" fill="#000000">
            <g id="Group-15" transform="translate(0.000000, 1511.000000)">
                <g id="page">
                    <path d="M56.0249993,17 L29.9792996,17 C27.7855832,17 26,18.7951685 26,21.0003321 L26,55.9082102 C26,56.5099691 26.4863522,57 27.084951,57 C27.146181,57 27.205717,56.99331 27.2635093,56.9832994 C27.3247393,56.99331 27.3859692,57 27.4471494,57 C27.6818559,57 27.9199503,56.9233335 28.1188854,56.7649707 L32.5862311,53.2280072 L37.0553206,56.7649707 C37.4481588,57.0766665 38.0025166,57.0766665 38.3970488,56.7649707 L43.0344833,53.0946465 L47.5273373,56.6532915 C47.9218695,56.963327 48.4762273,56.963327 48.8707595,56.6532915 L53.3347174,53.1179883 L57.8854136,56.7199475 C58.0979996,56.8883208 58.3530829,56.963327 58.6047286,56.9533164 C58.7033741,56.9832994 58.8087952,57 58.917654,57 C59.5179467,57 60.002605,56.5099691 60.002605,55.9082102 L60.002605,21.0003321 C60.002605,18.7951685 58.2187158,17 56.0249993,17 L56.0249993,17 Z M32.6117394,23.6705732 C32.6117394,23.3038436 32.9076759,23.0071881 33.2715682,23.0071881 L46.9287385,23.0071881 C47.2943745,23.0071881 47.5885673,23.3038436 47.5885673,23.6705732 L47.5885673,24.7422931 C47.5885673,25.1090227 47.2943745,25.4056782 46.9287385,25.4056782 L33.2715682,25.4056782 C32.905982,25.4056782 32.6117394,25.1090227 32.6117394,24.7422931 L32.6117394,23.6705732 L32.6117394,23.6705732 Z M52.8943001,43.9322161 C52.8943001,44.2989457 52.6001073,44.5956012 52.2344713,44.5956012 L33.2715682,44.5956012 C32.905982,44.5956012 32.6117394,44.2989457 32.6117394,43.9322161 L32.6117394,42.8604962 C32.6117394,42.4937666 32.9076759,42.1971111 33.2715682,42.1971111 L52.2344713,42.1971111 C52.6001073,42.1971111 52.8943001,42.4937666 52.8943001,42.8604962 L52.8943001,43.9322161 L52.8943001,43.9322161 Z M52.8943001,37.5367145 C52.8943001,37.901735 52.6001073,38.2000996 52.2344713,38.2000996 L33.2715682,38.2000996 C32.905982,38.2000996 32.6117394,37.901735 32.6117394,37.5367145 L32.6117394,36.4649458 C32.6117394,36.098265 32.9076759,35.8015607 33.2715682,35.8015607 L52.2344713,35.8015607 C52.6001073,35.8015607 52.8943001,36.098265 52.8943001,36.4649458 L52.8943001,37.5367145 L52.8943001,37.5367145 Z M52.8943001,31.1395038 C52.8943001,31.5061846 52.6001073,31.8028889 52.2344713,31.8028889 L33.2715682,31.8028889 C32.905982,31.8028889 32.6117394,31.5061846 32.6117394,31.1395038 L32.6117394,30.0677351 C32.6117394,29.7010543 32.9076759,29.40435 33.2715682,29.40435 L52.2344713,29.40435 C52.6001073,29.40435 52.8943001,29.7010543 52.8943001,30.0677351 L52.8943001,31.1395038 L52.8943001,31.1395038 Z"></path>
                </g>
            </g>
        </g>
    </g>
</svg>