<?xml version="1.0" encoding="UTF-8" standalone="no"?>
<svg width="50px" height="50px" viewBox="0 0 50 50" version="1.1" xmlns="http://www.w3.org/2000/svg" xmlns:xlink="http://www.w3.org/1999/xlink">
    <!-- Generator: Sketch 39.1 (31720) - http://www.bohemiancoding.com/sketch -->
    <title>like</title>
    <desc>Created with Sketch.</desc>
    <defs></defs>
    <g id="UI" stroke="none" stroke-width="1" fill="none" fill-rule="evenodd">
        <g id="文章-1-0" transform="translate(-568.000000, -3200.000000)" fill="#575D6A">
            <g id="Group-15-Copy" transform="translate(0.000000, 3185.000000)">
                <g id="Group-6" transform="translate(568.000000, 15.000000)">
                    <path d="M7.53127352,17.446149 L2.29023296,17.446149 C1.02736365,17.446149 0,18.4717764 0,19.7324534 L0,47.6456928 C0,48.9069143 1.02736365,49.9328821 2.29023296,49.9328821 L7.53127352,49.9328821 C8.79393834,49.9328821 9.82130198,48.9069143 9.82130198,47.6456928 L9.82130198,19.7324534 C9.82130198,18.4717764 8.79393834,17.446149 7.53127352,17.446149 M47.4913023,17.8779921 L47.4311137,17.8618593 C45.8982479,17.4600355 45.8472615,17.4464213 29.2488494,17.446149 C30.4897018,13.7234081 30.654658,12.7856605 30.654658,8.82589592 C30.654658,5.8985659 29.4263477,3.70361296 28.6939967,2.65586243 C27.5493233,1.01779924 26.1339717,9.59232693e-14 25,9.59232693e-14 C23.5838305,9.59232693e-14 22.7233316,1.15938715 22.7094262,2.28065447 C22.6690733,5.6535099 18.9953212,10.5139914 16.0432867,14.4194352 C13.6068425,17.6427384 11.9684593,19.5541751 11.9684593,20.7397016 L11.9684593,46.7559353 L12.4284281,46.8869041 C12.8747642,47.0148778 13.5490397,47.2081317 20.4921966,48.8056245 L20.5006489,48.8072582 C21.0129675,48.9226387 25.6418296,49.932814 30.2900503,49.932814 L39.8381521,49.932814 C41.6594868,49.932814 42.7839155,49.3847735 43.4786402,48.1564984 C43.6591378,47.8974878 45.0130738,45.8872118 46.4556909,41.8977682 C47.8451402,38.0550179 49.5808613,31.5588558 49.9601242,22.4310645 C49.9683039,22.2149387 49.9760064,22.0917981 49.9820048,21.9929588 C49.992911,21.8171311 50,21.7008657 50,21.3133368 C50,20.0589224 49.3429017,18.4064962 47.4913023,17.8779921" id="like"></path>
                </g>
            </g>
        </g>
    </g>
</svg>