<?xml version="1.0" encoding="UTF-8" standalone="no"?>
<svg width="50px" height="30px" viewBox="0 0 50 30" version="1.1" xmlns="http://www.w3.org/2000/svg" xmlns:xlink="http://www.w3.org/1999/xlink">
    <!-- Generator: Sketch 39.1 (31720) - http://www.bohemiancoding.com/sketch -->
    <title>see</title>
    <desc>Created with Sketch.</desc>
    <defs></defs>
    <g id="UI" stroke="none" stroke-width="1" fill="none" fill-rule="evenodd">
        <g id="文章-1-0" transform="translate(-531.000000, -2491.000000)" fill="#9B9B9B">
            <g id="Group-17" transform="translate(0.000000, 566.000000)">
                <g id="Group-7" transform="translate(392.000000, 1925.000000)">
                    <g id="see" transform="translate(139.000000, 0.000000)">
                        <path d="M49.0688567,12.8723895 C46.9411346,10.549724 44.6510702,8.38700108 42.1225975,6.46793742 C37.3559623,2.8503382 31.6894675,1.87049022e-05 24.9737889,1.87049022e-05 C20.4102517,-0.0055788728 16.5361588,1.24523279 12.3645234,3.65490767 C8.18803815,6.06746366 4.62212331,9.17724734 1.39510226,12.6641267 C-0.431503795,14.6380137 -0.462219501,15.4356685 1.28993713,17.4344976 C5.14292896,21.8295839 9.63975944,25.4406801 15.118982,27.8333153 C22.7386043,31.1611575 30.1439825,30.5673204 37.34371,26.6579886 C41.8908258,24.1889629 45.6558397,20.8099193 49.1036565,17.0820972 C50.3150975,15.7716878 50.2937412,14.2096343 49.0688567,12.8723895 Z M19.7489706,15.0097587 C19.7957674,12.0775334 22.0799609,9.91892639 25.0984385,9.95448747 C27.9631673,9.98864916 30.2391076,12.2711438 30.2238774,15.0950394 C30.2089875,17.8775294 27.8419211,20.0968867 24.9337138,20.0555634 C21.9610971,20.0134169 19.7044711,17.8171085 19.7489706,15.0097587 Z M35.8250268,15.0793168 C35.8252821,20.911005 31.0790673,25.4951741 25.0071422,25.5282657 C18.9632952,25.5611926 14.0663947,20.8906726 14.0589923,15.0857376 C14.0513347,9.14168626 18.8466435,4.4787394 25.0003354,4.48672418 C31.4102183,4.49495592 36.0261679,9.59723031 35.8250268,15.0793168 Z"></path>
                    </g>
                </g>
            </g>
        </g>
    </g>
</svg>