<?xml version="1.0" encoding="UTF-8" standalone="no"?>
<svg width="60px" height="60px" viewBox="0 0 60 60" version="1.1" xmlns="http://www.w3.org/2000/svg" xmlns:xlink="http://www.w3.org/1999/xlink">
    <!-- Generator: Sketch 39.1 (31720) - http://www.bohemiancoding.com/sketch -->
    <title>navigation</title>
    <desc>Created with Sketch.</desc>
    <defs></defs>
    <g id="UI" stroke="none" stroke-width="1" fill="none" fill-rule="evenodd">
        <g id="主页-1-0" transform="translate(-207.000000, -2841.000000)" fill="#26B8F2">
            <g id="tabbar" transform="translate(0.000000, 2821.000000)">
                <g id="navigation" transform="translate(207.000000, 20.000000)">
                    <path d="M29.999749,60 C13.4299587,60 0,46.5677823 0,29.9998327 C0,13.4300424 13.4299587,-5.32907052e-14 29.999749,-5.32907052e-14 C46.565858,-5.32907052e-14 59.997992,13.4300424 59.997992,29.9998327 C59.997992,46.5677823 46.565858,60 29.999749,60 L29.999749,60 Z M29.999749,5.62555952 C16.5353198,5.62555952 5.62405352,16.5375788 5.62405352,29.9998327 C5.62405352,43.4608316 16.5353198,54.3751098 29.999749,54.3751098 C43.4604133,54.3751098 54.3746915,43.4608316 54.3746915,29.9998327 C54.3746915,16.5375788 43.4604133,5.62555952 29.999749,5.62555952 L29.999749,5.62555952 Z M23.4352018,35.6253085 L14.9994562,15.0002928 L36.5619536,23.4375444 L44.9992052,45.0004602 L23.4352018,35.6253085 L23.4352018,35.6253085 Z M29.999749,27.1873876 C28.4456461,27.1873876 27.1857979,28.4457298 27.1857979,29.9998327 C27.1857979,31.5524295 28.4455625,32.8129471 29.999749,32.8129471 C31.5501705,32.8129471 32.8099351,31.5524295 32.8099351,29.9998327 C32.8099351,28.4456461 31.5500869,27.1873876 29.999749,27.1873876 L29.999749,27.1873876 Z"></path>
                </g>
            </g>
        </g>
    </g>
</svg>