<?xml version="1.0" encoding="UTF-8" standalone="no"?>
<svg width="30px" height="28px" viewBox="0 0 30 28" version="1.1" xmlns="http://www.w3.org/2000/svg" xmlns:xlink="http://www.w3.org/1999/xlink">
    <!-- Generator: Sketch 39.1 (31720) - http://www.bohemiancoding.com/sketch -->
    <title>setting</title>
    <desc>Created with Sketch.</desc>
    <defs></defs>
    <g id="UI" stroke="none" stroke-width="1" fill="none" fill-rule="evenodd">
        <g id="个人主页" transform="translate(-40.000000, -764.000000)" fill="#575D6A">
            <g id="Group-7" transform="translate(0.000000, 428.000000)">
                <g id="Group-Copy" transform="translate(0.000000, 300.000000)">
                    <g id="setting" transform="translate(40.000000, 35.000000)">
                        <path d="M29.8210269,12.9716623 C29.7036675,12.3224717 29.0757946,11.661584 28.4244499,11.5153699 L27.9374083,11.4042471 C26.793154,11.0591819 25.7779951,10.3047171 25.1325183,9.19348996 C24.4870416,8.07641424 24.3344743,6.80727586 24.6161369,5.64341163 L24.7687042,5.18722364 C24.9623472,4.55557874 24.7100244,3.6841427 24.199511,3.25134897 C24.199511,3.25134897 23.7418093,2.86534375 22.4508557,2.12257612 C21.1599022,1.38565706 20.602445,1.18095733 20.602445,1.18095733 C19.9745721,0.952863331 19.0943765,1.1692602 18.6366748,1.65469101 L18.2963325,2.01730197 C17.4278729,2.83610093 16.2601467,3.33322887 14.9691932,3.33322887 C13.6782396,3.33322887 12.4987775,2.83025236 11.6303178,2.00560485 L11.3017115,1.65469101 C10.8498778,1.1692602 9.96381418,0.952863331 9.33594132,1.18095733 C9.33594132,1.18095733 8.77261614,1.38565706 7.48166259,2.12257612 C6.19070905,2.87119231 5.73887531,3.25719753 5.73887531,3.25719753 C5.22836186,3.6841427 4.97603912,4.54973017 5.16968215,5.18722364 L5.31051345,5.6492602 C5.58630807,6.81312443 5.4396088,8.07641424 4.79413203,9.19348996 C4.14865526,10.3105657 3.12176039,11.070879 1.97163814,11.4100957 L1.50220049,11.5153699 C0.856723716,11.661584 0.222982885,12.3166231 0.105623472,12.9716623 C0.105623472,12.9716623 0,13.5565187 0,15.0420539 C0,16.5275892 0.105623472,17.1124456 0.105623472,17.1124456 C0.222982885,17.7674847 0.850855746,18.4225239 1.50220049,18.568738 L1.9599022,18.6740122 C3.11002445,19.0132289 4.14278729,19.7735422 4.78826406,20.8964665 C5.43374083,22.0135422 5.58630807,23.2826806 5.30464548,24.4465448 L5.16968215,24.8968842 C4.97603912,25.5285291 5.22836186,26.3999652 5.73887531,26.8327589 C5.73887531,26.8327589 6.19657702,27.2187641 7.48753056,27.9615317 C8.77848411,28.7042994 9.33594132,28.9031505 9.33594132,28.9031505 C9.96381418,29.1312445 10.8440098,28.9148477 11.3017115,28.4294169 L11.6244499,28.0843516 C12.4987775,27.2597041 13.6723716,26.7567276 14.9691932,26.7567276 C16.2660147,26.7567276 17.4454768,27.2655526 18.3139364,28.0902001 L18.6366748,28.4352654 C19.0885086,28.9206962 19.9745721,29.1370931 20.602445,28.9089991 C20.602445,28.9089991 21.1657702,28.7042994 22.4567237,27.9673803 C23.7476773,27.2246127 24.199511,26.8386075 24.199511,26.8386075 C24.7100244,26.4116623 24.9623472,25.5402263 24.7687042,24.9027328 L24.6278729,24.4348477 C24.3520782,23.276832 24.4987775,22.0135422 25.1442543,20.902315 C25.7897311,19.7852393 26.8224939,19.0190774 27.9726161,18.6798607 L28.4303178,18.5745866 C29.0757946,18.4283725 29.7095355,17.7733333 29.8268949,17.1182941 C29.8268949,17.1182941 29.9325183,16.5334377 29.9325183,15.0479025 C29.9266504,13.5565187 29.8210269,12.9716623 29.8210269,12.9716623 M14.9691932,20.9900435 C11.6772616,20.9900435 9.00146699,18.3289469 9.00146699,15.0420539 C9.00146699,11.7610095 11.6713936,9.09991294 14.9691932,9.09991294 C18.2611247,9.09991294 20.9369193,11.7610095 20.9369193,15.0479025 C20.9310513,18.3289469 18.2611247,20.9900435 14.9691932,20.9900435"></path>
                    </g>
                </g>
            </g>
        </g>
    </g>
</svg>