<?xml version="1.0" encoding="UTF-8" standalone="no"?>
<svg width="30px" height="38px" viewBox="0 0 30 38" version="1.1" xmlns="http://www.w3.org/2000/svg" xmlns:xlink="http://www.w3.org/1999/xlink">
    <!-- Generator: Sketch 39.1 (31720) - http://www.bohemiancoding.com/sketch -->
    <title>notice</title>
    <desc>Created with Sketch.</desc>
    <defs></defs>
    <g id="UI" stroke="none" stroke-width="1" fill="none" fill-rule="evenodd">
        <g id="个人主页" transform="translate(-40.000000, -659.000000)" fill="#575D6A">
            <g id="Group-7" transform="translate(0.000000, 428.000000)">
                <g id="Group" transform="translate(0.000000, 200.000000)">
                    <g id="notice" transform="translate(40.000000, 31.000000)">
                        <path d="M20.0002128,32.3671111 C19.9952689,35.1199409 17.7777889,37.3499985 15.0001825,37.3499985 C12.2418024,37.3499985 10.0051419,35.1291508 10.0001522,32.3671111 L20.0002128,32.3671111 L20.0002128,32.3671111 Z M18.3335666,3.32001 C18.3335666,1.49012451 16.8411473,2.13162821e-14 15.0001825,2.13162821e-14 C13.1629714,2.13162821e-14 11.6667984,1.48643146 11.6667984,3.32001 C11.6667984,3.50680558 11.6823626,3.69004489 11.7122549,3.86854251 C7.10933942,5.46640389 3.33338406,10.3734697 3.33338406,16.1791786 L3.33338406,20.7499941 C3.33338406,20.7499941 3.33338406,27.3326578 1.70958501,27.3900141 C0.741586171,27.3900141 0,28.1331842 0,29.0500191 C0,29.9731914 0.746072309,30.7099785 1.66646315,30.7099785 L28.3339018,30.7099785 C29.2587788,30.7099785 30.000365,29.9668083 30.000365,29.0500191 C30.000365,28.1268012 29.2542927,27.3900141 28.3339018,27.3900141 C26.6669809,27.3900141 26.6669809,20.7961345 26.6669809,20.7961345 L26.6669809,16.1798169 C26.6669809,10.3666763 23.1362983,5.45742202 18.2888883,3.86434793 C18.3182771,3.68721811 18.3335666,3.50539219 18.3335666,3.32001 L18.3335666,3.32001 Z"></path>
                    </g>
                </g>
            </g>
        </g>
    </g>
</svg>