<?xml version="1.0" encoding="UTF-8" standalone="no"?>
<svg width="53px" height="60px" viewBox="0 0 53 60" version="1.1" xmlns="http://www.w3.org/2000/svg" xmlns:xlink="http://www.w3.org/1999/xlink">
    <!-- Generator: Sketch 39.1 (31720) - http://www.bohemiancoding.com/sketch -->
    <title>User</title>
    <desc>Created with Sketch.</desc>
    <defs></defs>
    <g id="UI" stroke="none" stroke-width="1" fill="none" fill-rule="evenodd">
        <g id="主页-1-0" transform="translate(-487.000000, -2841.000000)" fill="#9B9B9B">
            <g id="tabbar" transform="translate(0.000000, 2821.000000)">
                <g id="User" transform="translate(487.000000, 20.000000)">
                    <path d="M0,55.7142857 C0,56.8972935 0.431315104,57.9073661 1.29394531,58.7444196 C2.15657552,59.5814732 3.19751139,60 4.41666667,60 L48.5833333,60 C49.8024886,60 50.8434245,59.5814732 51.7060547,58.7444196 C52.5686849,57.9073661 53,56.8972935 53,55.7142857 C53,54.5312779 52.5111475,52.4497768 51.5335286,49.4698661 C50.5559098,46.4899554 49.2561849,44.5982143 47.6344401,43.7946429 C46.0126953,42.9910714 44.1781396,41.4676339 42.1308594,39.2243304 C40.0835791,36.9810268 37.9557292,35.90399 35.7473958,35.9933036 C38.3238135,34.4307757 40.3710938,32.3660993 41.8893229,29.7991071 C43.4075521,27.232115 44.1666667,24.4419643 44.1666667,21.4285714 L44.1666667,17.1428571 C44.1666667,12.4107422 42.4414063,8.37053571 38.9908854,5.02232143 C35.5403646,1.67410714 31.3767074,0 26.5,0 C21.6232926,0 17.4596354,1.67410714 14.0091146,5.02232143 C10.5585938,8.37053571 8.83333333,12.4107422 8.83333333,17.1428571 L8.83333333,21.4285714 C8.83333333,24.4419643 9.59244792,27.232115 11.1106771,29.7991071 C12.6289063,32.3660993 14.6761865,34.4307757 17.2526042,35.9933036 C15.0442708,36.796875 12.9164209,37.8739118 10.8691406,39.2243304 C8.82186035,40.5747489 6.98730469,42.0981864 5.3655599,43.7946429 C3.7438151,45.4910993 2.44409017,47.3828404 1.46647135,49.4698661 C0.488852539,51.5568917 0,53.6383929 0,55.7142857"></path>
                </g>
            </g>
        </g>
    </g>
</svg>