<?xml version="1.0" encoding="UTF-8" standalone="no"?>
<svg width="20px" height="30px" viewBox="0 0 20 30" version="1.1" xmlns="http://www.w3.org/2000/svg" xmlns:xlink="http://www.w3.org/1999/xlink">
    <!-- Generator: Sketch 39.1 (31720) - http://www.bohemiancoding.com/sketch -->
    <title>location</title>
    <desc>Created with Sketch.</desc>
    <defs></defs>
    <g id="UI" stroke="none" stroke-width="1" fill="none" fill-rule="evenodd">
        <g id="主页-1-0" transform="translate(-515.000000, -1380.000000)" fill="#000000">
            <g id="company" transform="translate(0.000000, 1017.000000)">
                <g id="Group-4" transform="translate(0.000000, 330.000000)">
                    <g id="Group-9" transform="translate(515.000000, 33.000000)">
                        <path d="M0,11.25 C0,17.4756226 10,30 10,30 C10,30 20,17.4756226 20,11.25 C20,5.02437744 15.5338867,0 10,0 C4.46611328,0 0,5.02437744 0,11.25 L0,11.25 Z M6.66666667,11.25 C6.66666667,9.17501221 8.15553385,7.5 10,7.5 C11.8444336,7.5 13.3333333,9.17501221 13.3333333,11.25 C13.3333333,13.3249878 11.8444336,15 10,15 C8.15553385,15 6.66666667,13.3249878 6.66666667,11.25 L6.66666667,11.25 Z" id="location"></path>
                    </g>
                </g>
            </g>
        </g>
    </g>
</svg>